PathFileType  4	(X/Y/Z) C:\Users\antoi\Documents\MyRepositories\mobilecap\ResultsAnalysis
DataRate	CameraRate	NumFrames	NumMarkers	Units	OrigDataRate	OrigDataStartFrame	OrigNumFrames
100.0	100.0	4	51	mm	100.0	41	163
Frame#	Time	r_knee			r_shank_antsup			r_ankle			r_calc			r_5meta			r_toe			L_knee			L_shank_antsup			L_ankle			L_calc			L_5meta			L_toe			r_sh2			r_sh3			r_sh4			L_sh2			L_sh3			r_thigh1			r_thigh2			r_thigh3			r_thigh4			r_thigh5			L_thigh1			L_thigh2			L_thigh3			L_thigh4			r.ASIS			r.PSIS			L.ASIS			L.PSIS			C7			R_Shoulder			L_Shoulder			R_Sternum			L_Sternum			R_humerus			R_elbow_med			R_elbow_lat			R_forearm			R_wrist_radius			R_wrist_ulna			L_humerus			L_elbow_med			L_elbow_lat			L_forearm			L_wrist_radius			L_wrist_ulna			R_HJC			L_HJC			R_HJC_reg			L_HJC_reg			
		X1	Y1	Z1	X2	Y2	Z2	X3	Y3	Z3	X4	Y4	Z4	X5	Y5	Z5	X6	Y6	Z6	X7	Y7	Z7	X8	Y8	Z8	X9	Y9	Z9	X10	Y10	Z10	X11	Y11	Z11	X12	Y12	Z12	X13	Y13	Z13	X14	Y14	Z14	X15	Y15	Z15	X16	Y16	Z16	X17	Y17	Z17	X18	Y18	Z18	X19	Y19	Z19	X20	Y20	Z20	X21	Y21	Z21	X22	Y22	Z22	X23	Y23	Z23	X24	Y24	Z24	X25	Y25	Z25	X26	Y26	Z26	X27	Y27	Z27	X28	Y28	Z28	X29	Y29	Z29	X30	Y30	Z30	X31	Y31	Z31	X32	Y32	Z32	X33	Y33	Z33	X34	Y34	Z34	X35	Y35	Z35	X36	Y36	Z36	X37	Y37	Z37	X38	Y38	Z38	X39	Y39	Z39	X40	Y40	Z40	X41	Y41	Z41	X42	Y42	Z42	X43	Y43	Z43	X44	Y44	Z44	X45	Y45	Z45	X46	Y46	Z46	X47	Y47	Z47	X48	Y48	Z48	X49	Y49	Z49	X50	Y50	Z50	X51	Y51	Z51	

41	0.40000000	272.16040	546.35283	-171.37498	288.52373	415.98988	-190.01363	142.47667	106.40159	-211.53963	75.85966	76.10681	-264.75288	261.94677	36.93879	-153.37454	309.63703	57.97871	-220.33625	439.43645	589.64129	-524.64570	463.31112	479.10427	-515.25682	281.50938	172.22012	-474.19120	226.37424	168.77350	-409.80180	391.06361	55.63444	-511.05692	438.68118	78.69360	-454.19980	273.08505	305.94253	-215.06164	225.28399	413.33191	-145.71101	214.39885	297.21899	-154.32365	376.84441	503.15394	-533.59943	358.79137	383.84759	-545.99199	397.00170	767.54475	-179.07888	386.62571	657.20026	-197.81194	349.55720	628.49120	-146.40811	309.22752	762.28319	-106.32764	299.65018	649.65534	-132.39992	425.08567	849.82645	-520.63951	488.74479	727.98367	-524.56784	328.71981	799.09246	-550.05129	393.87162	675.70307	-550.80449	379.04046	1048.97187	-175.84558	168.09410	1090.39887	-239.32415	354.89751	1051.53165	-440.19219	154.65783	1092.65928	-336.07467	281.02041	1588.44233	-244.94439	360.59528	1475.73414	-86.83082	317.65259	1557.77599	-436.35516	403.48353	1486.92064	-254.26102	396.91620	1491.98667	-301.07380	376.09751	1301.85303	-35.42437	290.00018	1083.77801	-76.78624	325.70815	1101.20433	-3.77614	430.26019	963.64800	-28.66967	473.67314	849.24782	-38.01715	448.48050	834.63218	-6.30947	251.03886	1415.84396	-549.90169	106.28147	1240.04036	-530.28704	127.41912	1264.52993	-605.14672	180.74803	1106.13735	-638.93534	167.67121	996.63652	-689.75701	129.96464	1011.70390	-715.24286	291.28025	972.19822	-203.88588	272.75275	964.14552	-416.32076	303.73763	970.87728	-205.25447	279.64535	974.92978	-378.74446	
42	0.41000000	275.56400	546.34947	-171.34080	290.59309	415.91226	-189.79340	142.71322	106.99079	-211.47696	75.90329	76.94107	-264.63610	261.95222	36.78547	-153.27841	309.70799	57.81235	-220.25685	448.83431	588.61312	-523.38046	477.10219	479.01992	-515.09778	312.56754	161.79115	-475.37260	258.71015	154.44166	-410.26036	428.34398	52.27989	-515.07860	475.36517	77.97523	-458.94726	274.52693	305.94605	-214.77713	227.28904	413.67528	-145.56070	215.68590	297.61289	-154.12410	389.30627	498.76830	-532.31947	377.43215	378.80426	-545.81080	403.21534	766.26864	-179.58888	392.18031	656.15859	-198.30092	354.41902	627.69672	-146.89791	315.71484	761.91412	-106.60993	304.41830	649.20118	-132.72382	434.02102	849.11460	-519.57579	497.70218	727.27116	-523.09152	337.83951	798.28813	-549.57887	403.13702	674.94677	-549.88095	388.08868	1048.09738	-175.94910	177.12054	1089.95619	-239.48063	363.98137	1050.64858	-440.25901	163.65533	1092.15832	-336.26177	290.38970	1587.86340	-245.26200	370.44058	1475.14354	-87.39395	326.03311	1557.05790	-436.77469	412.78450	1486.25095	-254.94135	406.06128	1491.29180	-301.72325	386.82312	1301.39248	-36.22571	301.55993	1082.93756	-77.03289	337.78459	1100.45678	-4.31793	443.23468	963.77038	-30.37794	487.57785	849.77773	-40.29788	462.63656	834.86870	-8.46012	258.56358	1415.26750	-549.78043	114.41488	1238.99481	-529.01949	134.42142	1263.89735	-604.08224	188.62036	1105.91557	-638.81277	176.27156	996.55064	-689.90274	138.22626	1011.29164	-714.85420	300.11670	971.50319	-203.97671	281.62501	963.41737	-416.41352	312.62958	970.25215	-205.25581	288.49645	974.19887	-378.71651	
43	0.42000000	279.01356	546.32573	-171.21572	292.59356	415.82856	-189.41924	142.90064	107.55395	-211.34907	75.89090	77.76094	-264.44619	261.89530	36.54305	-153.13213	309.75178	57.64171	-220.15537	457.64004	586.92522	-522.04632	490.31485	478.59526	-514.84359	343.84867	151.92147	-476.63706	291.54132	140.81497	-410.78301	465.26416	49.80437	-519.31258	511.70043	78.13502	-463.93131	275.92108	305.95913	-214.31205	229.21288	414.03642	-145.27908	216.87597	298.02043	-153.78408	401.41446	493.89299	-530.98706	395.84228	373.55350	-545.60529	409.44707	764.92498	-180.02600	397.76395	655.11828	-198.66600	359.33565	626.87484	-147.31082	322.23929	761.48266	-106.84420	309.21682	648.69336	-133.00489	442.53906	847.74215	-518.65878	506.07921	725.81081	-521.62056	346.44370	796.94885	-548.94166	411.67263	673.55322	-548.75254	397.17310	1047.13879	-176.05381	186.18676	1089.40793	-239.70658	373.12408	1049.48304	-440.35733	172.72366	1091.49156	-336.52194	299.74102	1587.14493	-245.81465	380.18522	1474.50268	-88.10290	334.50335	1556.14381	-437.39014	422.07439	1485.45603	-255.74527	415.21739	1490.45080	-302.49886	397.43400	1300.91033	-37.13801	313.04513	1082.04243	-77.38028	349.71342	1099.69684	-4.93142	456.08916	963.89076	-32.09989	501.37477	850.33591	-42.56213	476.69009	835.13544	-10.58539	266.27817	1414.38116	-549.78278	122.83807	1237.57463	-527.73037	141.69980	1262.84479	-603.00852	196.87625	1105.31017	-638.58109	185.24277	996.02304	-689.86887	146.87226	1010.43170	-714.35574	308.97781	970.71528	-204.03415	290.54525	962.43994	-416.46891	321.53184	969.50578	-205.23592	297.41085	973.23913	-378.69421	
44	0.43000000	282.48805	546.28016	-170.97960	294.52690	415.74059	-188.86328	143.03084	108.10023	-211.14940	75.86681	78.53618	-264.18084	261.76573	36.20262	-152.92916	309.77141	57.46423	-220.02234	465.92091	584.58431	-520.65677	502.98349	477.86764	-514.49973	375.22648	142.78494	-477.99335	324.73137	128.07725	-411.41001	501.66803	48.33219	-523.71093	547.52008	79.21404	-469.04482	277.26167	305.98188	-213.64150	231.04949	414.42238	-144.85244	217.96226	298.45059	-153.28446	413.20871	488.58085	-529.60604	414.01656	368.16317	-545.36111	415.70916	763.51401	-180.35697	403.29676	654.05927	-198.88034	364.26160	626.03796	-147.60780	328.74983	760.99350	-106.99153	314.04733	648.15146	-133.21499	450.69048	845.72629	-517.85199	513.95638	723.63930	-520.20586	354.57541	795.07819	-548.16611	419.51215	671.53147	-547.44555	406.28312	1046.09281	-176.16969	195.30299	1088.75098	-239.99766	382.32488	1048.03788	-440.50285	181.87632	1090.64290	-336.84549	309.08313	1586.28302	-246.61166	389.83181	1473.80911	-88.96296	343.07883	1555.03375	-438.20668	431.33960	1484.53481	-256.68074	424.38243	1489.46861	-303.40959	407.92830	1300.40487	-38.14686	324.44785	1081.08633	-77.82291	361.49361	1098.91809	-5.61703	468.82128	964.00622	-33.82475	515.03653	850.91028	-44.80115	490.63941	835.42716	-12.66778	274.18884	1413.19568	-549.91721	131.55016	1235.80198	-526.43843	149.26585	1261.37784	-601.93449	205.48412	1104.33244	-638.27550	194.55061	995.06803	-689.67674	155.85870	1009.13495	-713.76265	317.87252	969.82842	-204.06453	299.51522	961.21158	-416.49249	330.43519	968.65429	-205.19765	306.38339	972.04348	-378.68454	
